<svg width="24" height="24" viewBox="0 0 24 24" fill="none" xmlns="http://www.w3.org/2000/svg">
<path d="M13.0778 23C12.4776 22.9997 11.8783 22.9507 11.286 22.8533C8.38866 22.3765 5.79849 20.7659 4.08436 18.3753C2.37024 15.9847 1.67232 13.0095 2.1439 10.1032C2.40778 8.44871 3.04376 6.87616 4.00364 5.50475C4.96352 4.13334 6.22211 2.99906 7.68401 2.18789C7.93064 2.04969 8.21167 1.98544 8.49367 2.00277C8.77567 2.02011 9.04677 2.11831 9.27473 2.28569C9.50774 2.44557 9.68939 2.66992 9.79759 2.93144C9.9058 3.19296 9.93589 3.48038 9.8842 3.75873L9.09189 3.69761L9.84154 3.83208C9.4186 6.08198 9.81383 8.40938 10.9555 10.3921C12.0972 12.3747 13.9097 13.8813 16.0643 14.6385C17.7235 15.216 19.5084 15.328 21.2265 14.9624C21.4983 14.9089 21.7797 14.9326 22.0388 15.0309C22.298 15.1292 22.5246 15.2981 22.6931 15.5186C22.8617 15.7391 22.9654 16.0024 22.9928 16.2789C23.0201 16.5554 22.9698 16.834 22.8477 17.0834C21.9077 18.8657 20.5018 20.3579 18.7808 21.4002C17.0597 22.4425 15.0883 22.9955 13.0778 23ZM8.34224 3.56925C7.17649 4.23215 6.1629 5.13366 5.36737 6.21519C4.57184 7.29671 4.01217 8.53403 3.72475 9.84671C3.43732 11.1594 3.42858 12.518 3.6991 13.8343C3.96961 15.1506 4.51332 16.3951 5.29487 17.4868C6.23687 18.8073 7.49836 19.8659 8.96065 20.5628C10.423 21.2597 12.038 21.5721 13.6539 21.4707C15.2697 21.3692 16.8333 20.8572 18.1975 19.9827C19.5617 19.1083 20.6816 17.9002 21.452 16.4721C19.4916 16.8674 17.4617 16.7323 15.5706 16.081C13.0753 15.2035 10.9751 13.4601 9.64951 11.1655C8.32389 8.87099 7.86022 6.17666 8.34224 3.56925Z" fill="black"/>
</svg>
