<svg width="24" height="24" viewBox="0 0 24 24" fill="none" xmlns="http://www.w3.org/2000/svg">
<path d="M12 17C14.7614 17 17 14.7614 17 12C17 9.23858 14.7614 7 12 7C9.23858 7 7 9.23858 7 12C7 14.7614 9.23858 17 12 17Z" fill="black"/>
<path d="M21 13H20C19.7348 13 19.4804 12.8946 19.2929 12.7071C19.1054 12.5196 19 12.2652 19 12C19 11.7348 19.1054 11.4804 19.2929 11.2929C19.4804 11.1054 19.7348 11 20 11H21C21.2652 11 21.5196 11.1054 21.7071 11.2929C21.8946 11.4804 22 11.7348 22 12C22 12.2652 21.8946 12.5196 21.7071 12.7071C21.5196 12.8946 21.2652 13 21 13Z" fill="black"/>
<path d="M4 13H3C2.73478 13 2.48043 12.8946 2.29289 12.7071C2.10536 12.5196 2 12.2652 2 12C2 11.7348 2.10536 11.4804 2.29289 11.2929C2.48043 11.1054 2.73478 11 3 11H4C4.26522 11 4.51957 11.1054 4.70711 11.2929C4.89464 11.4804 5 11.7348 5 12C5 12.2652 4.89464 12.5196 4.70711 12.7071C4.51957 12.8946 4.26522 13 4 13Z" fill="black"/>
<path d="M17.6598 7.33962C17.4114 7.32837 17.1761 7.22498 16.9998 7.04962C16.8135 6.86226 16.709 6.60881 16.709 6.34462C16.709 6.08044 16.8135 5.82698 16.9998 5.63962L17.7098 4.92962C17.7994 4.82494 17.9097 4.73992 18.0338 4.6799C18.1579 4.61987 18.293 4.58614 18.4307 4.58082C18.5684 4.5755 18.7058 4.59871 18.8341 4.64898C18.9624 4.69926 19.079 4.77552 19.1764 4.87297C19.2739 4.97043 19.3501 5.08697 19.4004 5.2153C19.4507 5.34362 19.4739 5.48096 19.4686 5.61868C19.4633 5.75639 19.4295 5.89153 19.3695 6.01559C19.3095 6.13966 19.2245 6.24997 19.1198 6.33962L18.4098 7.04962C18.3116 7.14723 18.1943 7.22341 18.0652 7.27333C17.9361 7.32325 17.7981 7.34582 17.6598 7.33962Z" fill="black"/>
<path d="M5.63946 19.3602C5.50786 19.361 5.3774 19.3358 5.25556 19.286C5.13372 19.2362 5.0229 19.1629 4.92946 19.0702C4.74321 18.8829 4.63867 18.6294 4.63867 18.3652C4.63867 18.101 4.74321 17.8476 4.92946 17.6602L5.63946 17.0002C5.83077 16.8364 6.07684 16.7508 6.32852 16.7605C6.58019 16.7702 6.81893 16.8746 6.99703 17.0527C7.17512 17.2308 7.27945 17.4695 7.28918 17.7212C7.2989 17.9728 7.21329 18.2189 7.04946 18.4102L6.33946 19.1202C6.1454 19.2868 5.8949 19.3727 5.63946 19.3602Z" fill="black"/>
<path d="M12 5C11.7348 5 11.4804 4.89464 11.2929 4.70711C11.1054 4.51957 11 4.26522 11 4V3C11 2.73478 11.1054 2.48043 11.2929 2.29289C11.4804 2.10536 11.7348 2 12 2C12.2652 2 12.5196 2.10536 12.7071 2.29289C12.8946 2.48043 13 2.73478 13 3V4C13 4.26522 12.8946 4.51957 12.7071 4.70711C12.5196 4.89464 12.2652 5 12 5Z" fill="black"/>
<path d="M12 22C11.7348 22 11.4804 21.8946 11.2929 21.7071C11.1054 21.5196 11 21.2652 11 21V20C11 19.7348 11.1054 19.4804 11.2929 19.2929C11.4804 19.1054 11.7348 19 12 19C12.2652 19 12.5196 19.1054 12.7071 19.2929C12.8946 19.4804 13 19.7348 13 20V21C13 21.2652 12.8946 21.5196 12.7071 21.7071C12.5196 21.8946 12.2652 22 12 22Z" fill="black"/>
<path d="M6.33991 7.33991C6.07757 7.33881 5.82617 7.23465 5.63991 7.04991L4.92991 6.33991C4.76608 6.14861 4.68048 5.90253 4.6902 5.65086C4.69992 5.39918 4.80425 5.16044 4.98235 4.98235C5.16044 4.80425 5.39918 4.69992 5.65086 4.6902C5.90253 4.68048 6.14861 4.76608 6.33991 4.92991L7.04991 5.63991C7.23616 5.82727 7.3407 6.08072 7.3407 6.34491C7.3407 6.6091 7.23616 6.86255 7.04991 7.04991C6.95647 7.14259 6.84565 7.21592 6.72382 7.26568C6.60198 7.31545 6.47152 7.34067 6.33991 7.33991Z" fill="black"/>
<path d="M18.3591 19.3601C18.0968 19.359 17.8454 19.2549 17.6591 19.0701L16.9991 18.3601C16.8935 18.1701 16.8526 17.9509 16.8827 17.7356C16.9128 17.5203 17.0122 17.3206 17.1659 17.1669C17.3197 17.0132 17.5193 16.9138 17.7346 16.8837C17.9499 16.8536 18.1692 16.8944 18.3591 17.0001L19.0691 17.7101C19.2554 17.8975 19.3599 18.1509 19.3599 18.4151C19.3599 18.6793 19.2554 18.9328 19.0691 19.1201C18.8725 19.2891 18.618 19.3752 18.3591 19.3601Z" fill="black"/>
</svg>
